<svg width="148" height="35" viewBox="0 0 148 35" fill="none" xmlns="http://www.w3.org/2000/svg">
<path fill-rule="evenodd" clip-rule="evenodd" d="M32.4263 0.368037C33.3475 0.998588 33.5832 2.25654 32.9526 3.17776C31.3623 5.5011 29.0348 6.63544 26.6075 7.20296C24.2312 7.75855 21.5588 7.81556 19.0667 7.84254C18.8509 7.84487 18.6362 7.84698 18.4226 7.84908C16.0829 7.87206 13.88 7.8937 11.8454 8.19873C9.64739 8.52824 7.87171 9.16179 6.53403 10.3085C4.58614 11.9782 3.81497 14.1159 4.10338 15.8029C4.36641 17.3414 5.62993 19.1226 9.16972 19.9433C10.2924 20.2037 12.3446 20.2334 15.0138 20.0236C17.6112 19.8195 20.5764 19.4087 23.3957 18.9112C24.495 18.7172 25.5435 19.4511 25.7375 20.5505C25.9315 21.6499 25.1976 22.6983 24.0982 22.8923C21.1904 23.4055 18.0917 23.8369 15.3305 24.0539C12.641 24.2652 10.0398 24.295 8.2566 23.8815C3.56612 22.794 0.724276 20.0272 0.118538 16.4841C-0.46183 13.0895 1.13482 9.61205 3.90299 7.23915C6.04419 5.4037 8.6609 4.5883 11.246 4.20075C13.5759 3.85146 16.0631 3.82817 18.3454 3.80679C18.5734 3.80466 18.7994 3.80254 19.0229 3.80012C21.5723 3.77252 23.8092 3.70555 25.6871 3.26647C27.514 2.83932 28.7856 2.10832 29.6166 0.894333C30.2471 -0.0268833 31.5051 -0.262514 32.4263 0.368037Z" fill="#7CA3F6"/>
<path fill-rule="evenodd" clip-rule="evenodd" d="M4.75045 34.6321C3.82924 34.0015 3.59361 32.7436 4.22415 31.8224C5.81442 29.499 8.14198 28.3647 10.5693 27.7972C12.9455 27.2416 15.618 27.1846 18.1101 27.1576C18.3259 27.1552 18.5406 27.1531 18.7542 27.151C21.0939 27.1281 23.2967 27.1064 25.3314 26.8014C27.5294 26.4719 29.305 25.8383 30.6427 24.6917C32.5906 23.0219 33.3618 20.8842 33.0734 19.1973C32.8103 17.6587 31.5468 15.8775 28.007 15.0568C26.8843 14.7965 24.8322 14.7667 22.163 14.9765C19.5656 15.1806 16.6004 15.5914 13.7811 16.0889C12.6817 16.2829 11.6332 15.549 11.4392 14.4496C11.2452 13.3503 11.9792 12.3018 13.0785 12.1078C15.9863 11.5946 19.0851 11.1632 21.8463 10.9462C24.5358 10.7349 27.1369 10.7051 28.9202 11.1186C33.6106 12.2062 36.4525 14.9729 37.0582 18.516C37.6386 21.9106 36.0419 25.3881 33.2738 27.761C31.1326 29.5964 28.5159 30.4118 25.9308 30.7994C23.6009 31.1487 21.1137 31.172 18.8314 31.1933C18.6034 31.1955 18.3774 31.1976 18.1538 31.2C15.6045 31.2276 13.3676 31.2946 11.4896 31.7337C9.66272 32.1608 8.39112 32.8918 7.56017 34.1058C6.92962 35.027 5.67167 35.2626 4.75045 34.6321Z" fill="#2D3748"/>
<path d="M141.773 17.8899V8.0717H143.621V9.63136H143.723C143.902 9.10295 144.217 8.68747 144.669 8.38491C145.125 8.07809 145.641 7.92468 146.216 7.92468C146.335 7.92468 146.476 7.92894 146.638 7.93747C146.804 7.94599 146.934 7.95664 147.028 7.96943V9.79755C146.951 9.77625 146.815 9.75281 146.619 9.72724C146.423 9.69741 146.227 9.6825 146.031 9.6825C145.579 9.6825 145.176 9.77838 144.822 9.97014C144.473 10.1576 144.196 10.4197 143.991 10.7564C143.787 11.0887 143.685 11.468 143.685 11.8941V17.8899H141.773Z" fill="#2D3748"/>
<path d="M135.441 18.0879C134.473 18.0879 133.64 17.8812 132.941 17.4679C132.247 17.0503 131.71 16.4643 131.331 15.7101C130.956 14.9515 130.768 14.063 130.768 13.0446C130.768 12.0389 130.956 11.1525 131.331 10.3855C131.71 9.61844 132.238 9.01972 132.916 8.58932C133.598 8.15892 134.394 7.94373 135.306 7.94373C135.86 7.94373 136.397 8.03535 136.917 8.21858C137.437 8.40182 137.904 8.68946 138.317 9.08151C138.73 9.47355 139.056 9.98279 139.295 10.6092C139.534 11.2314 139.653 11.9878 139.653 12.8784V13.5559H131.848V12.1241H137.78C137.78 11.6213 137.678 11.176 137.473 10.7882C137.269 10.3961 136.981 10.0872 136.61 9.86134C136.244 9.63549 135.814 9.52256 135.319 9.52256C134.782 9.52256 134.314 9.65466 133.913 9.91887C133.517 10.1788 133.21 10.5197 132.993 10.9416C132.779 11.3592 132.673 11.813 132.673 12.3031V13.4217C132.673 14.078 132.788 14.6362 133.018 15.0964C133.252 15.5567 133.578 15.9082 133.996 16.1511C134.414 16.3897 134.902 16.5091 135.46 16.5091C135.822 16.5091 136.152 16.4579 136.451 16.3557C136.749 16.2491 137.007 16.0915 137.224 15.8826C137.441 15.6738 137.608 15.416 137.723 15.1092L139.532 15.4352C139.387 15.9679 139.127 16.4345 138.752 16.8351C138.381 17.2314 137.914 17.5403 137.352 17.7619C136.794 17.9792 136.157 18.0879 135.441 18.0879Z" fill="#2D3748"/>
<path d="M123.617 18.0816C122.824 18.0816 122.117 17.8792 121.495 17.4744C120.877 17.0653 120.391 16.4836 120.037 15.7293C119.688 14.9708 119.513 14.061 119.513 12.9999C119.513 11.9389 119.69 11.0312 120.044 10.2769C120.402 9.52267 120.892 8.94526 121.514 8.54469C122.136 8.14412 122.841 7.94384 123.63 7.94384C124.239 7.94384 124.729 8.04611 125.1 8.25065C125.475 8.45094 125.765 8.68531 125.969 8.95378C126.178 9.22225 126.34 9.45875 126.455 9.6633H126.57V4.79895H128.481V17.8899H126.615V16.3622H126.455C126.34 16.571 126.174 16.8096 125.956 17.0781C125.743 17.3465 125.449 17.5809 125.074 17.7812C124.699 17.9815 124.213 18.0816 123.617 18.0816ZM124.039 16.4517C124.588 16.4517 125.053 16.3068 125.432 16.017C125.816 15.723 126.106 15.316 126.302 14.7961C126.502 14.2762 126.602 13.6711 126.602 12.9808C126.602 12.299 126.504 11.7024 126.308 11.191C126.112 10.6796 125.824 10.2812 125.445 9.99568C125.066 9.71017 124.597 9.56742 124.039 9.56742C123.463 9.56742 122.984 9.71656 122.601 10.0149C122.217 10.3132 121.927 10.7201 121.731 11.2357C121.539 11.7514 121.444 12.333 121.444 12.9808C121.444 13.637 121.542 14.2272 121.738 14.7514C121.934 15.2755 122.223 15.691 122.607 15.9978C122.995 16.3004 123.472 16.4517 124.039 16.4517Z" fill="#2D3748"/>
<path d="M115.459 17.8898V8.07166H117.37V17.8898H115.459ZM116.424 6.55674C116.092 6.55674 115.806 6.44594 115.568 6.22435C115.333 5.9985 115.216 5.73004 115.216 5.41896C115.216 5.10362 115.333 4.83515 115.568 4.61356C115.806 4.38771 116.092 4.27478 116.424 4.27478C116.757 4.27478 117.04 4.38771 117.274 4.61356C117.513 4.83515 117.632 5.10362 117.632 5.41896C117.632 5.73004 117.513 5.9985 117.274 6.22435C117.04 6.44594 116.757 6.55674 116.424 6.55674Z" fill="#2D3748"/>
<path d="M111.168 8.23789C111.1 7.63278 110.819 7.16403 110.325 6.83164C109.83 6.495 109.208 6.32667 108.458 6.32667C107.921 6.32667 107.457 6.4119 107.065 6.58235C106.673 6.74855 106.368 6.97866 106.151 7.27269C105.938 7.56247 105.831 7.89272 105.831 8.26346C105.831 8.57454 105.903 8.84301 106.048 9.06886C106.198 9.29471 106.391 9.48434 106.63 9.63775C106.873 9.7869 107.133 9.91261 107.41 10.0149C107.687 10.1129 107.953 10.1939 108.209 10.2578L109.487 10.5902C109.905 10.6924 110.333 10.8309 110.772 11.0056C111.211 11.1804 111.618 11.4105 111.993 11.696C112.368 11.9815 112.671 12.3352 112.901 12.7571C113.135 13.1789 113.252 13.6839 113.252 14.272C113.252 15.0135 113.06 15.6718 112.677 16.2471C112.298 16.8224 111.746 17.2762 111.021 17.6086C110.301 17.941 109.43 18.1072 108.407 18.1072C107.427 18.1072 106.579 17.9517 105.863 17.6406C105.147 17.3295 104.587 16.8885 104.182 16.3174C103.777 15.7422 103.553 15.0603 103.511 14.272H105.492C105.531 14.745 105.684 15.1392 105.953 15.4545C106.225 15.7656 106.573 15.9978 106.994 16.1512C107.421 16.3004 107.887 16.375 108.394 16.375C108.953 16.375 109.449 16.2876 109.884 16.1129C110.323 15.9339 110.668 15.6868 110.919 15.3714C111.171 15.0518 111.296 14.6789 111.296 14.2528C111.296 13.865 111.185 13.5476 110.964 13.3004C110.747 13.0532 110.45 12.8487 110.075 12.6868C109.705 12.5248 109.285 12.3821 108.816 12.2585L107.269 11.8366C106.221 11.5511 105.39 11.1314 104.776 10.5774C104.167 10.0234 103.862 9.29045 103.862 8.37852C103.862 7.62426 104.067 6.96588 104.476 6.40338C104.885 5.84088 105.439 5.40409 106.138 5.09301C106.837 4.77767 107.625 4.62 108.503 4.62C109.389 4.62 110.171 4.77553 110.849 5.08661C111.531 5.39769 112.068 5.82596 112.46 6.37142C112.852 6.91261 113.056 7.53477 113.073 8.23789H111.168Z" fill="#2D3748"/>
<path d="M97.5422 18.0879C96.5749 18.0879 95.7418 17.8812 95.0429 17.4679C94.3483 17.0503 93.8114 16.4643 93.4321 15.7101C93.0571 14.9515 92.8696 14.063 92.8696 13.0446C92.8696 12.0389 93.0571 11.1525 93.4321 10.3855C93.8114 9.61844 94.3398 9.01972 95.0174 8.58932C95.6992 8.15892 96.4961 7.94373 97.408 7.94373C97.962 7.94373 98.4989 8.03535 99.0188 8.21858C99.5387 8.40182 100.005 8.68946 100.419 9.08151C100.832 9.47355 101.158 9.98279 101.397 10.6092C101.635 11.2314 101.755 11.9878 101.755 12.8784V13.5559H93.9499V12.1241H99.8817C99.8817 11.6213 99.7794 11.176 99.5749 10.7882C99.3703 10.3961 99.0827 10.0872 98.712 9.86134C98.3455 9.63549 97.9151 9.52256 97.4208 9.52256C96.8838 9.52256 96.4151 9.65466 96.0145 9.91887C95.6182 10.1788 95.3114 10.5197 95.0941 10.9416C94.881 11.3592 94.7745 11.813 94.7745 12.3031V13.4217C94.7745 14.078 94.8895 14.6362 95.1196 15.0964C95.354 15.5567 95.68 15.9082 96.0976 16.1511C96.5152 16.3897 97.0032 16.5091 97.5614 16.5091C97.9236 16.5091 98.2539 16.4579 98.5522 16.3557C98.8505 16.2491 99.1083 16.0915 99.3256 15.8826C99.5429 15.6738 99.7091 15.416 99.8242 15.1092L101.633 15.4352C101.488 15.9679 101.228 16.4345 100.853 16.8351C100.483 17.2314 100.016 17.5403 99.4534 17.7619C98.8952 17.9792 98.2581 18.0879 97.5422 18.0879Z" fill="#7CA3F6"/>
<path d="M82.2012 21.5716V8.07157H84.0676V9.66319H84.2275C84.3382 9.45864 84.498 9.22213 84.7069 8.95367C84.9157 8.6852 85.2054 8.45083 85.5762 8.25054C85.9469 8.046 86.437 7.94373 87.0463 7.94373C87.839 7.94373 88.5463 8.14401 89.1685 8.54458C89.7907 8.94515 90.2786 9.52256 90.6323 10.2768C90.9902 11.0311 91.1692 11.9388 91.1692 12.9998C91.1692 14.0609 90.9924 14.9707 90.6387 15.7292C90.285 16.4835 89.7992 17.0652 89.1813 17.4743C88.5634 17.8791 87.8581 18.0815 87.0655 18.0815C86.4689 18.0815 85.981 17.9814 85.6017 17.7811C85.2267 17.5808 84.9327 17.3464 84.7196 17.078C84.5066 16.8095 84.3425 16.5709 84.2275 16.3621H84.1124V21.5716H82.2012ZM84.074 12.9807C84.074 13.671 84.1742 14.2761 84.3745 14.796C84.5747 15.3159 84.8645 15.7228 85.2438 16.0169C85.623 16.3067 86.0875 16.4515 86.6373 16.4515C87.2083 16.4515 87.6855 16.3003 88.0691 15.9977C88.4526 15.6909 88.7424 15.2754 88.9384 14.7513C89.1387 14.2271 89.2388 13.6369 89.2388 12.9807C89.2388 12.3329 89.1408 11.7513 88.9448 11.2356C88.753 10.72 88.4632 10.313 88.0755 10.0147C87.6919 9.71645 87.2125 9.56731 86.6373 9.56731C86.0833 9.56731 85.6145 9.71006 85.231 9.99557C84.8517 10.2811 84.5641 10.6795 84.3681 11.1909C84.1721 11.7022 84.074 12.2988 84.074 12.9807Z" fill="#7CA3F6"/>
<path d="M74.8104 18.1071C74.1882 18.1071 73.6257 17.992 73.1229 17.7619C72.6201 17.5275 72.2216 17.1888 71.9276 16.7456C71.6378 16.3024 71.4929 15.7591 71.4929 15.1156C71.4929 14.5616 71.5995 14.1057 71.8125 13.7477C72.0256 13.3897 72.3132 13.1064 72.6754 12.8976C73.0377 12.6888 73.4425 12.5311 73.8899 12.4246C74.3374 12.318 74.7933 12.237 75.2578 12.1817C75.8459 12.1135 76.3232 12.0581 76.6897 12.0155C77.0561 11.9686 77.3225 11.894 77.4887 11.7917C77.6549 11.6895 77.7379 11.5233 77.7379 11.2932V11.2484C77.7379 10.6902 77.5803 10.2576 77.2649 9.95083C76.9539 9.64401 76.4894 9.4906 75.8715 9.4906C75.228 9.4906 74.7209 9.63336 74.3502 9.91887C73.9837 10.2001 73.7301 10.5133 73.5895 10.8585L71.7933 10.4494C72.0064 9.85282 72.3175 9.37128 72.7266 9.00481C73.1399 8.63407 73.6151 8.3656 74.152 8.19941C74.6889 8.02895 75.2536 7.94373 75.8459 7.94373C76.2379 7.94373 76.6534 7.9906 77.0924 8.08435C77.5355 8.17384 77.9489 8.34003 78.3324 8.58293C78.7202 8.82583 79.0377 9.17313 79.2848 9.62483C79.532 10.0723 79.6556 10.654 79.6556 11.3699V17.8897H77.7891V16.5474H77.7124C77.5888 16.7946 77.4034 17.0375 77.1563 17.2761C76.9091 17.5147 76.5916 17.7129 76.2039 17.8706C75.8161 18.0282 75.3516 18.1071 74.8104 18.1071ZM75.2259 16.573C75.7543 16.573 76.206 16.4686 76.581 16.2598C76.9602 16.051 77.2479 15.7782 77.4439 15.4416C77.6442 15.1007 77.7443 14.7363 77.7443 14.3486V13.0829C77.6762 13.1511 77.5441 13.215 77.348 13.2747C77.1563 13.3301 76.9368 13.3791 76.6897 13.4217C76.4425 13.4601 76.2017 13.4963 75.9674 13.5304C75.733 13.5602 75.537 13.5858 75.3793 13.6071C75.0085 13.654 74.6698 13.7328 74.3629 13.8436C74.0604 13.9544 73.8175 14.1142 73.6343 14.323C73.4553 14.5275 73.3658 14.8003 73.3658 15.1412C73.3658 15.6142 73.5405 15.9721 73.8899 16.215C74.2394 16.4537 74.6847 16.573 75.2259 16.573Z" fill="#7CA3F6"/>
<path d="M63.0362 12.0603V17.8899H61.125V4.79895H63.0107V9.66969H63.1321C63.3622 9.14128 63.7138 8.72153 64.1868 8.41046C64.6598 8.09938 65.2777 7.94384 66.0405 7.94384C66.7138 7.94384 67.3018 8.08233 67.8047 8.35932C68.3118 8.63631 68.7038 9.04966 68.9808 9.59938C69.2621 10.1448 69.4027 10.8266 69.4027 11.6448V17.8899H67.4915V11.8749C67.4915 11.1548 67.3061 10.5965 66.9354 10.2002C66.5646 9.79966 66.049 9.59938 65.3885 9.59938C64.9368 9.59938 64.532 9.69526 64.174 9.88702C63.8203 10.0788 63.5412 10.36 63.3366 10.7308C63.1364 11.0972 63.0362 11.5404 63.0362 12.0603Z" fill="#7CA3F6"/>
<path d="M56.8344 8.23789C56.7662 7.63278 56.485 7.16403 55.9907 6.83164C55.4964 6.495 54.8742 6.32667 54.1242 6.32667C53.5873 6.32667 53.1228 6.4119 52.7307 6.58235C52.3387 6.74855 52.034 6.97866 51.8167 7.27269C51.6036 7.56247 51.4971 7.89272 51.4971 8.26346C51.4971 8.57454 51.5695 8.84301 51.7144 9.06886C51.8635 9.29471 52.0574 9.48434 52.2961 9.63775C52.539 9.7869 52.7989 9.91261 53.0759 10.0149C53.3529 10.1129 53.6192 10.1939 53.8749 10.2578L55.1533 10.5902C55.5709 10.6924 55.9992 10.8309 56.4381 11.0056C56.877 11.1804 57.284 11.4105 57.659 11.696C58.034 11.9815 58.3366 12.3352 58.5667 12.7571C58.801 13.1789 58.9182 13.6839 58.9182 14.272C58.9182 15.0135 58.7265 15.6718 58.343 16.2471C57.9637 16.8224 57.4118 17.2762 56.6874 17.6086C55.9672 17.941 55.0958 18.1072 54.0731 18.1072C53.093 18.1072 52.2449 17.9517 51.529 17.6406C50.8131 17.3295 50.2528 16.8885 49.8479 16.3174C49.4431 15.7422 49.2194 15.0603 49.1768 14.272H51.1583C51.1966 14.745 51.3501 15.1392 51.6185 15.4545C51.8912 15.7656 52.2385 15.9978 52.6604 16.1512C53.0866 16.3004 53.5532 16.375 54.0603 16.375C54.6185 16.375 55.115 16.2876 55.5496 16.1129C55.9885 15.9339 56.3337 15.6868 56.5851 15.3714C56.8366 15.0518 56.9623 14.6789 56.9623 14.2528C56.9623 13.865 56.8515 13.5476 56.6299 13.3004C56.4126 13.0532 56.1164 12.8487 55.7414 12.6868C55.3706 12.5248 54.9509 12.3821 54.4822 12.2585L52.9353 11.8366C51.887 11.5511 51.056 11.1314 50.4424 10.5774C49.833 10.0234 49.5283 9.29045 49.5283 8.37852C49.5283 7.62426 49.7329 6.96588 50.142 6.40338C50.551 5.84088 51.105 5.40409 51.8039 5.09301C52.5028 4.77767 53.2911 4.62 54.1689 4.62C55.0553 4.62 55.8373 4.77553 56.5148 5.08661C57.1966 5.39769 57.7336 5.82596 58.1256 6.37142C58.5177 6.91261 58.7222 7.53477 58.7393 8.23789H56.8344Z" fill="#7CA3F6"/>
<path d="M132.721 21.8444V30.5716H131.715V21.8444H132.721Z" fill="#2D3748"/>
<path d="M127.475 30.7081C126.844 30.7081 126.3 30.5689 125.843 30.2905C125.388 30.0092 125.037 29.6172 124.79 29.1143C124.546 28.6087 124.424 28.0206 124.424 27.3501C124.424 26.6797 124.546 26.0888 124.79 25.5774C125.037 25.0632 125.381 24.6626 125.821 24.3757C126.264 24.0859 126.782 23.941 127.372 23.941C127.713 23.941 128.05 23.9979 128.382 24.1115C128.715 24.2251 129.017 24.4098 129.29 24.6655C129.563 24.9183 129.78 25.2535 129.942 25.6712C130.104 26.0888 130.185 26.603 130.185 27.2138V27.6399H125.139V26.7706H129.162C129.162 26.4013 129.088 26.0717 128.941 25.7819C128.796 25.4922 128.588 25.2635 128.318 25.0959C128.051 24.9283 127.736 24.8444 127.372 24.8444C126.972 24.8444 126.625 24.9439 126.333 25.1427C126.043 25.3388 125.82 25.5944 125.664 25.9098C125.507 26.2251 125.429 26.5632 125.429 26.924V27.5035C125.429 27.9979 125.514 28.4169 125.685 28.7606C125.858 29.1016 126.098 29.3615 126.405 29.5405C126.712 29.7166 127.068 29.8047 127.475 29.8047C127.739 29.8047 127.978 29.7677 128.191 29.6939C128.407 29.6172 128.593 29.5035 128.749 29.353C128.905 29.1996 129.026 29.0092 129.111 28.7819L130.083 29.0547C129.98 29.3842 129.809 29.674 129.567 29.924C129.326 30.1712 129.027 30.3643 128.672 30.5035C128.317 30.6399 127.918 30.7081 127.475 30.7081Z" fill="#2D3748"/>
<path d="M118.717 26.6342V30.5717H117.711V24.0263H118.683V25.049H118.768C118.921 24.7166 119.154 24.4496 119.467 24.2479C119.779 24.0433 120.183 23.941 120.677 23.941C121.12 23.941 121.508 24.0319 121.84 24.2138C122.173 24.3927 122.431 24.6655 122.616 25.0319C122.8 25.3956 122.893 25.8558 122.893 26.4126V30.5717H121.887V26.4808C121.887 25.9666 121.754 25.566 121.487 25.2791C121.219 24.9893 120.853 24.8444 120.387 24.8444C120.066 24.8444 119.779 24.9141 119.526 25.0533C119.276 25.1925 119.079 25.3956 118.934 25.6626C118.789 25.9297 118.717 26.2535 118.717 26.6342Z" fill="#2D3748"/>
<path d="M112.875 30.7251C112.461 30.7251 112.084 30.647 111.746 30.4908C111.408 30.3317 111.139 30.103 110.941 29.8047C110.742 29.5035 110.642 29.1399 110.642 28.7138C110.642 28.3388 110.716 28.0348 110.864 27.8018C111.012 27.566 111.209 27.3814 111.456 27.2479C111.703 27.1143 111.976 27.0149 112.274 26.9496C112.576 26.8814 112.878 26.8274 113.182 26.7876C113.58 26.7365 113.902 26.6981 114.149 26.6726C114.399 26.6442 114.581 26.5973 114.695 26.5319C114.811 26.4666 114.87 26.353 114.87 26.191V26.1569C114.87 25.7365 114.755 25.4098 114.524 25.1768C114.297 24.9439 113.952 24.8274 113.489 24.8274C113.009 24.8274 112.632 24.9325 112.36 25.1427C112.087 25.353 111.895 25.5774 111.784 25.816L110.83 25.4751C111 25.0774 111.228 24.7677 111.512 24.5462C111.799 24.3217 112.111 24.1655 112.449 24.0774C112.79 23.9865 113.125 23.941 113.455 23.941C113.665 23.941 113.907 23.9666 114.179 24.0177C114.455 24.066 114.72 24.1669 114.976 24.3203C115.235 24.4737 115.449 24.7052 115.62 25.0149C115.79 25.3246 115.875 25.7393 115.875 26.2592V30.5717H114.87V29.6854H114.818C114.75 29.8274 114.637 29.9794 114.478 30.1413C114.318 30.3033 114.107 30.441 113.843 30.5547C113.578 30.6683 113.256 30.7251 112.875 30.7251ZM113.029 29.8217C113.426 29.8217 113.762 29.7436 114.034 29.5873C114.31 29.4311 114.517 29.2294 114.657 28.9822C114.799 28.7351 114.87 28.4751 114.87 28.2024V27.2819C114.827 27.3331 114.733 27.38 114.588 27.4226C114.446 27.4623 114.282 27.4979 114.094 27.5291C113.909 27.5575 113.729 27.5831 113.553 27.6058C113.38 27.6257 113.239 27.6427 113.131 27.6569C112.87 27.691 112.625 27.7464 112.398 27.8231C112.174 27.897 111.992 28.0092 111.853 28.1598C111.716 28.3075 111.648 28.5092 111.648 28.7649C111.648 29.1143 111.777 29.3785 112.036 29.5575C112.297 29.7337 112.628 29.8217 113.029 29.8217Z" fill="#2D3748"/>
<path d="M103.468 30.5716V21.8444H106.417C107.102 21.8444 107.662 21.9679 108.096 22.2151C108.534 22.4594 108.858 22.7904 109.068 23.208C109.278 23.6256 109.383 24.0915 109.383 24.6057C109.383 25.1199 109.278 25.5873 109.068 26.0077C108.86 26.4282 108.539 26.7634 108.105 27.0134C107.67 27.2606 107.113 27.3841 106.434 27.3841H104.321V26.4466H106.4C106.869 26.4466 107.245 26.3657 107.529 26.2037C107.814 26.0418 108.02 25.8231 108.147 25.5475C108.278 25.2691 108.343 24.9552 108.343 24.6057C108.343 24.2563 108.278 23.9438 108.147 23.6682C108.02 23.3927 107.812 23.1767 107.525 23.0205C107.238 22.8614 106.858 22.7819 106.383 22.7819H104.525V30.5716H103.468Z" fill="#2D3748"/>
<path d="M93.9432 26.6342V30.5717H92.9375V24.0263H93.9091V25.049H93.9943C94.1477 24.7166 94.3807 24.4496 94.6932 24.2479C95.0057 24.0433 95.4091 23.941 95.9034 23.941C96.3466 23.941 96.7344 24.0319 97.0668 24.2138C97.3991 24.3927 97.6577 24.6655 97.8423 25.0319C98.027 25.3956 98.1193 25.8558 98.1193 26.4126V30.5717H97.1136V26.4808C97.1136 25.9666 96.9801 25.566 96.7131 25.2791C96.446 24.9893 96.0795 24.8444 95.6136 24.8444C95.2926 24.8444 95.0057 24.9141 94.7528 25.0533C94.5028 25.1925 94.3054 25.3956 94.1605 25.6626C94.0156 25.9297 93.9432 26.2535 93.9432 26.6342Z" fill="#2D3748"/>
<path d="M90.0898 30.5717V24.0262H91.0955V30.5717H90.0898ZM90.6012 22.9353C90.4051 22.9353 90.2361 22.8685 90.0941 22.735C89.9549 22.6015 89.8853 22.441 89.8853 22.2535C89.8853 22.066 89.9549 21.9055 90.0941 21.7719C90.2361 21.6384 90.4051 21.5717 90.6012 21.5717C90.7972 21.5717 90.9648 21.6384 91.104 21.7719C91.246 21.9055 91.3171 22.066 91.3171 22.2535C91.3171 22.441 91.246 22.6015 91.104 22.735C90.9648 22.8685 90.7972 22.9353 90.6012 22.9353Z" fill="#2D3748"/>
<path d="M79.6602 30.5717V24.0263H80.6317V25.049H80.717C80.8533 24.6996 81.0735 24.4283 81.3775 24.2351C81.6815 24.0391 82.0465 23.941 82.4727 23.941C82.9045 23.941 83.2638 24.0391 83.5508 24.2351C83.8406 24.4283 84.0664 24.6996 84.2283 25.049H84.2965C84.4641 24.7109 84.7156 24.4425 85.0508 24.2436C85.386 24.0419 85.788 23.941 86.2567 23.941C86.842 23.941 87.3207 24.1243 87.6928 24.4908C88.065 24.8544 88.2511 25.4212 88.2511 26.191V30.5717H87.2454V26.191C87.2454 25.7081 87.1133 25.3629 86.8491 25.1555C86.5849 24.9481 86.2738 24.8444 85.9158 24.8444C85.4556 24.8444 85.0991 24.9837 84.8462 25.2621C84.5934 25.5376 84.467 25.8871 84.467 26.3104V30.5717H83.4442V26.0888C83.4442 25.7166 83.3235 25.4169 83.082 25.1896C82.8406 24.9595 82.5295 24.8444 82.1488 24.8444C81.8874 24.8444 81.6431 24.9141 81.4158 25.0533C81.1914 25.1925 81.0096 25.3856 80.8704 25.6328C80.734 25.8771 80.6658 26.1598 80.6658 26.4808V30.5717H79.6602Z" fill="#2D3748"/>
<path d="M74.6786 30.708C74.1331 30.708 73.6516 30.5702 73.234 30.2946C72.8163 30.0162 72.4896 29.6242 72.2538 29.1185C72.018 28.61 71.9001 28.0091 71.9001 27.316C71.9001 26.6285 72.018 26.0319 72.2538 25.5262C72.4896 25.0205 72.8178 24.6299 73.2382 24.3543C73.6587 24.0787 74.1445 23.941 74.6956 23.941C75.1217 23.941 75.4584 24.012 75.7055 24.154C75.9555 24.2932 76.1459 24.4523 76.2766 24.6313C76.4101 24.8074 76.5138 24.9523 76.5876 25.066H76.6729V21.8444H77.6786V30.5716H76.707V29.566H76.5876C76.5138 29.6853 76.4087 29.8358 76.2723 30.0177C76.1359 30.1966 75.9413 30.3571 75.6885 30.4992C75.4357 30.6384 75.099 30.708 74.6786 30.708ZM74.8149 29.8046C75.2183 29.8046 75.5592 29.6995 75.8376 29.4892C76.1161 29.2762 76.3277 28.9821 76.4726 28.6071C76.6175 28.2293 76.6899 27.7932 76.6899 27.2989C76.6899 26.8103 76.6189 26.3827 76.4769 26.0162C76.3348 25.6469 76.1246 25.36 75.8462 25.1554C75.5678 24.9481 75.224 24.8444 74.8149 24.8444C74.3888 24.8444 74.0337 24.9537 73.7496 25.1725C73.4683 25.3884 73.2567 25.6824 73.1146 26.0546C72.9754 26.4239 72.9058 26.8387 72.9058 27.2989C72.9058 27.7648 72.9769 28.1881 73.1189 28.5688C73.2638 28.9466 73.4769 29.2478 73.7581 29.4722C74.0422 29.6938 74.3945 29.8046 74.8149 29.8046Z" fill="#2D3748"/>
<path d="M64.592 30.5716H63.484L66.6886 21.8444H67.7795L70.984 30.5716H69.8761L67.2681 23.225H67.1999L64.592 30.5716ZM65.0011 27.1625H69.467V28.1H65.0011V27.1625Z" fill="#2D3748"/>
</svg>
