<svg width="14" height="14" viewBox="0 0 14 14" fill="none" xmlns="http://www.w3.org/2000/svg">
<path d="M7.1618 2.16444C7.11837 2.11993 7.0606 2.09509 7.00051 2.09509C6.94041 2.09509 6.88264 2.11993 6.83922 2.16444L1.46965 7.66061C1.44684 7.68399 1.4287 7.71207 1.41632 7.74318C1.40393 7.77428 1.39757 7.80775 1.3976 7.84156L1.39673 12.9999C1.39673 13.2651 1.49506 13.5195 1.67009 13.707C1.84513 13.8946 2.08252 14 2.33006 14H5.13297C5.25674 14 5.37543 13.9473 5.46295 13.8535C5.55047 13.7597 5.59964 13.6325 5.59964 13.4999V9.24975C5.59964 9.18344 5.62422 9.11985 5.66798 9.07296C5.71173 9.02608 5.77108 8.99974 5.83297 8.99974H8.1663C8.22818 8.99974 8.28753 9.02608 8.33129 9.07296C8.37505 9.11985 8.39963 9.18344 8.39963 9.24975V13.4999C8.39963 13.6325 8.44879 13.7597 8.53631 13.8535C8.62383 13.9473 8.74253 14 8.86629 14H11.668C11.9156 14 12.153 13.8946 12.328 13.707C12.503 13.5195 12.6014 13.2651 12.6014 12.9999V7.84156C12.6014 7.80775 12.595 7.77428 12.5827 7.74318C12.5703 7.71207 12.5521 7.68399 12.5293 7.66061L7.1618 2.16444Z" fill="white"/>
<path d="M13.8515 6.62997L11.6699 4.39363V1.00004C11.6699 0.867429 11.6207 0.740247 11.5332 0.646474C11.4457 0.552702 11.327 0.500022 11.2032 0.500022H9.80319C9.67943 0.500022 9.56073 0.552702 9.47321 0.646474C9.3857 0.740247 9.33653 0.867429 9.33653 1.00004V2.00009L7.6472 0.269387C7.48912 0.0981292 7.25403 0 6.99999 0C6.74683 0 6.51233 0.0981293 6.35425 0.269699L0.150511 6.62935C-0.0309055 6.81686 -0.0536555 7.12531 0.111427 7.32844C0.152882 7.37972 0.203641 7.42141 0.260614 7.451C0.317587 7.48059 0.379584 7.49745 0.44283 7.50054C0.506076 7.50364 0.56925 7.49292 0.628505 7.46903C0.687761 7.44514 0.74186 7.40857 0.787509 7.36157L6.83958 1.16505C6.883 1.12054 6.94078 1.0957 7.00087 1.0957C7.06096 1.0957 7.11874 1.12054 7.16216 1.16505L13.2148 7.36157C13.304 7.45318 13.4234 7.50318 13.5469 7.5006C13.6704 7.49802 13.7879 7.44308 13.8737 7.34782C14.0528 7.14906 14.0379 6.82092 13.8515 6.62997Z" fill="white"/>
</svg>
