<svg width="14" height="14" viewBox="0 0 14 14" fill="none" xmlns="http://www.w3.org/2000/svg">
<path d="M14 9.8V12.6C14 12.9713 13.8525 13.3274 13.5899 13.5899C13.3274 13.8525 12.9713 14 12.6 14H9.8V12.6C9.8 12.2287 9.6525 11.8726 9.38995 11.6101C9.1274 11.3475 8.7713 11.2 8.4 11.2C8.0287 11.2 7.6726 11.3475 7.41005 11.6101C7.1475 11.8726 7 12.2287 7 12.6V14H4.2C3.8287 14 3.4726 13.8525 3.21005 13.5899C2.9475 13.3274 2.8 12.9713 2.8 12.6V9.8H1.4C1.0287 9.8 0.672601 9.6525 0.410051 9.38995C0.1475 9.1274 0 8.7713 0 8.4C0 8.0287 0.1475 7.6726 0.410051 7.41005C0.672601 7.1475 1.0287 7 1.4 7H2.8V4.2C2.8 3.43 3.43 2.8 4.2 2.8H7V1.4C7 1.0287 7.1475 0.672601 7.41005 0.410051C7.6726 0.1475 8.0287 0 8.4 0C8.7713 0 9.1274 0.1475 9.38995 0.410051C9.6525 0.672601 9.8 1.0287 9.8 1.4V2.8H12.6C12.9713 2.8 13.3274 2.9475 13.5899 3.21005C13.8525 3.4726 14 3.8287 14 4.2V7H12.6C12.2287 7 11.8726 7.1475 11.6101 7.41005C11.3475 7.6726 11.2 8.0287 11.2 8.4C11.2 8.7713 11.3475 9.1274 11.6101 9.38995C11.8726 9.6525 12.2287 9.8 12.6 9.8H14Z" fill="white"/>
</svg>
