<svg width="14" height="14" viewBox="0 0 14 14" fill="none" xmlns="http://www.w3.org/2000/svg">
<path d="M7 4.56522C6.5055 4.56522 6.02211 4.70801 5.61095 4.97555C5.1998 5.24309 4.87934 5.62335 4.6901 6.06825C4.50087 6.51315 4.45135 7.0027 4.54782 7.475C4.6443 7.9473 4.88242 8.38114 5.23208 8.72165C5.58174 9.06216 6.02724 9.29405 6.51223 9.388C6.99723 9.48195 7.49994 9.43373 7.95679 9.24945C8.41365 9.06516 8.80413 8.75309 9.07886 8.35269C9.35358 7.95229 9.50022 7.48155 9.50022 7C9.49824 6.35485 9.23419 5.73667 8.76573 5.28048C8.29728 4.82428 7.66249 4.56714 7 4.56522V4.56522ZM12.398 7C12.3967 7.2275 12.3795 7.45466 12.3467 7.67991L13.8684 8.84009C13.9347 8.89338 13.9793 8.96788 13.9944 9.05029C14.0095 9.13269 13.9939 9.21763 13.9506 9.28991L12.5111 11.7101C12.4673 11.7817 12.399 11.8361 12.3182 11.8635C12.2374 11.8909 12.1492 11.8898 12.0692 11.8601L10.28 11.1601C9.9074 11.4395 9.49969 11.6714 9.06674 11.8501L8.79922 13.6999C8.78425 13.7828 8.74019 13.858 8.67458 13.9127C8.60897 13.9675 8.52588 13.9983 8.4395 14H5.5605C5.4757 13.9984 5.39396 13.9688 5.32862 13.9162C5.26329 13.8635 5.21822 13.7908 5.20078 13.71L4.93326 11.8601C4.49912 11.6835 4.09111 11.4513 3.72003 11.1696L1.93081 11.8696C1.85083 11.8992 1.76268 11.9005 1.68185 11.8731C1.60103 11.8457 1.53271 11.7914 1.4889 11.7198L0.0493977 9.29996C0.00606822 9.22767 -0.00945476 9.14274 0.00560269 9.06033C0.0206601 8.97793 0.0653168 8.90342 0.131592 8.85013L1.65329 7.68996C1.62083 7.4613 1.60371 7.23083 1.60203 7C1.60333 6.7725 1.62046 6.54534 1.65329 6.32009L0.131592 5.15991C0.0653168 5.10662 0.0206601 5.03212 0.00560269 4.94971C-0.00945476 4.86731 0.00606822 4.78237 0.0493977 4.71009L1.4889 2.28991C1.53266 2.21827 1.60096 2.16395 1.68179 2.1365C1.76262 2.10906 1.8508 2.11025 1.93081 2.13987L3.72003 2.83987C4.0926 2.56048 4.50031 2.32862 4.93326 2.14991L5.20078 0.300087C5.21575 0.217228 5.25981 0.142004 5.32542 0.08727C5.39103 0.0325359 5.47412 0.00168875 5.5605 0H8.4395C8.5243 0.00160742 8.60604 0.0311625 8.67138 0.0838407C8.73671 0.136519 8.78178 0.209208 8.79922 0.290043L9.06674 2.13987C9.50143 2.31638 9.90997 2.54862 10.2815 2.83043L12.0692 2.13043C12.1492 2.10079 12.2373 2.09955 12.3181 2.12694C12.399 2.15432 12.4673 2.20858 12.5111 2.28017L13.9506 4.70035C13.9939 4.77263 14.0095 4.85757 13.9944 4.93997C13.9793 5.02238 13.9347 5.09688 13.8684 5.15017L12.3467 6.31035C12.3792 6.5389 12.3963 6.76928 12.398 7V7Z" fill="white"/>
</svg>
