<svg width="12" height="14" viewBox="0 0 12 14" fill="none" xmlns="http://www.w3.org/2000/svg">
<path fill-rule="evenodd" clip-rule="evenodd" d="M3.42857 1.3125C3.42857 0.587626 4.00421 0 4.71429 0H7.28571C7.99579 0 8.57143 0.587626 8.57143 1.3125V2.1875C8.57143 2.91237 7.99579 3.5 7.28571 3.5H4.71429C4.00421 3.5 3.42857 2.91237 3.42857 2.1875V1.3125ZM7.71429 1.3125C7.71429 1.07088 7.52241 0.875 7.28571 0.875H4.71429C4.47759 0.875 4.28571 1.07088 4.28571 1.3125V2.1875C4.28571 2.42912 4.47759 2.625 4.71429 2.625H7.28571C7.52241 2.625 7.71429 2.42912 7.71429 2.1875V1.3125Z" fill="white"/>
<path d="M1.71429 1.3125H2.57143V2.1875C2.57143 3.39562 3.53082 4.375 4.71429 4.375H7.28571C8.46918 4.375 9.42857 3.39562 9.42857 2.1875V1.3125H10.2857C11.2325 1.3125 12 2.096 12 3.0625V12.25C12 13.2165 11.2325 14 10.2857 14H1.71429C0.767512 14 0 13.2165 0 12.25V3.0625C0 2.096 0.767512 1.3125 1.71429 1.3125Z" fill="white"/>
</svg>
