<svg width="16" height="14" viewBox="0 0 16 14" fill="none" xmlns="http://www.w3.org/2000/svg">
<path d="M5.35388 9.05859C6.58456 9.05863 7.78341 9.40584 8.72986 10.0361C9.79524 10.7464 10.4735 11.759 10.6908 12.9639C10.7407 13.2398 10.6733 13.513 10.5062 13.7129C10.4303 13.8039 10.3346 13.8772 10.2269 13.9268C10.1192 13.9763 10.0017 14.0015 9.88318 14H0.823611C0.705211 14.0015 0.587443 13.9762 0.479861 13.9268C0.372491 13.8773 0.277365 13.8046 0.20154 13.7139C0.0342787 13.5139 -0.0338928 13.24 0.0159935 12.9639C0.23328 11.7591 0.911593 10.7466 1.97693 10.0361C2.9235 9.40538 4.12296 9.05859 5.35388 9.05859ZM10.2943 6.58789C11.5248 6.58793 12.7239 6.93535 13.6703 7.56543C14.7357 8.27568 15.4139 9.28835 15.6312 10.4932C15.6811 10.7692 15.6138 11.0422 15.4467 11.2422C15.3707 11.3331 15.275 11.4065 15.1674 11.4561C15.0598 11.5055 14.942 11.5308 14.8236 11.5293H11.8285C11.4169 10.5114 10.7286 9.63893 9.8158 8.9668L9.56092 8.78809L9.33045 8.64062C9.04942 8.4695 8.75423 8.31874 8.44959 8.1875C8.81141 7.73856 9.08988 7.21856 9.27478 6.66797C9.60888 6.61518 9.95048 6.58793 10.2943 6.58789ZM5.35388 2.4707C6.12596 2.47072 6.82572 2.76886 7.32654 3.30957C7.83329 3.85694 8.08026 4.59388 8.02185 5.38379C7.90562 6.95635 6.71083 8.23532 5.35388 8.23535C3.99684 8.23535 2.80024 6.95576 2.68592 5.38281C2.62832 4.5856 2.87348 3.84696 3.37732 3.30371C3.87582 2.76646 4.57777 2.4707 5.35388 2.4707ZM10.2943 0C11.0662 1.46229e-05 11.7662 0.29839 12.267 0.838867C12.7738 1.38624 13.0207 2.12314 12.9623 2.91309C12.8461 4.48567 11.6513 5.76461 10.2943 5.76465C10.0214 5.76455 9.75575 5.70984 9.5033 5.61426C9.50732 5.57415 9.514 5.53431 9.51697 5.49414L9.52771 5.27441C9.55406 4.24836 9.23244 3.25132 8.57263 2.45703L8.42615 2.29004L8.27283 2.13379C8.11837 1.9839 7.95345 1.84832 7.78064 1.72656C7.89844 1.3946 8.07823 1.09135 8.31775 0.833008C8.8161 0.29593 9.51849 0.000185834 10.2943 0Z" fill="white"/>
</svg>
