<svg width="13" height="14" viewBox="0 0 13 14" fill="none" xmlns="http://www.w3.org/2000/svg">
<path d="M6.5 8C7.99476 8 9.45116 8.42184 10.6006 9.1875C11.8943 10.05 12.7177 11.279 12.9814 12.7422C13.042 13.0774 12.9598 13.4086 12.7568 13.6514C12.6646 13.762 12.5488 13.8509 12.418 13.9111C12.2873 13.9713 12.1449 14.0018 12.001 14H1C0.856115 14.0018 0.713747 13.9712 0.583008 13.9111C0.452283 13.851 0.336392 13.7628 0.244141 13.6523C0.0410063 13.4095 -0.0410965 13.0775 0.0195312 12.7422C0.283319 11.2791 1.10667 10.0503 2.40039 9.1875C3.5497 8.42161 5.00541 8.00009 6.5 8ZM6.50098 0C7.4384 8.00794e-05 8.28742 0.362035 8.89551 1.01855C9.51112 1.68327 9.81117 2.57772 9.74023 3.53711C9.59926 5.44672 8.14871 6.9998 6.50098 7C4.85309 7 3.3995 5.44622 3.26074 3.53613C3.19081 2.56806 3.48874 1.67138 4.10059 1.01172C4.70592 0.359268 5.55849 0 6.50098 0Z" fill="white"/>
</svg>
